<svg width="104" height="116" viewBox="0 0 104 116" fill="none" xmlns="http://www.w3.org/2000/svg">
<path d="M83.2731 16.2L82.8731 16L58.3731 1.8C54.1731 -0.6 49.1731 -0.6 45.0731 1.8L20.5731 15.9L20.1731 16.1C16.0731 18.5 13.4731 22.9 13.4731 27.7V46.2V55V56.4C13.4731 61.2 16.0731 65.6 20.1731 68L25.6731 71.2L44.9731 82.4C49.0731 84.8 54.1731 84.8 58.2731 82.4L77.7731 71.2L83.1731 68.1C87.2731 65.7 89.8731 61.3 89.8731 56.5V39.3V31V27.8C89.9731 22.9 87.3731 18.6 83.2731 16.2Z" fill="url(#paint0_linear)"/>
<path d="M49.4732 28.4999L47.3732 28.1999C47.3732 28.1999 47.4732 27.6999 47.0732 27.2999C46.7732 26.9999 45.9732 26.5999 43.7732 26.9999C43.1732 27.0999 42.6732 26.6999 42.4732 26.0999C42.3732 25.4999 42.7732 24.9999 43.3732 24.7999C45.6732 24.3999 47.4732 24.5999 48.5732 25.6999C49.6732 26.8999 49.4732 28.2999 49.4732 28.4999Z" fill="black"/>
<path d="M53.7732 28.4999C53.7732 28.2999 53.5732 26.8999 54.7732 25.7999C55.7732 24.7999 57.5732 24.4999 59.9732 24.8999C60.5732 24.9999 60.9732 25.5999 60.8732 26.1999C60.7732 26.7999 60.1732 27.1999 59.5732 27.0999C57.3732 26.6999 56.5732 27.0999 56.2732 27.3999C55.8732 27.7999 55.9732 28.2999 55.9732 28.2999L53.7732 28.4999Z" fill="black"/>
<path d="M59.8731 33.1999C58.7731 29.6999 55.5731 27.0999 51.6731 27.0999C47.7731 27.0999 44.5731 29.6999 43.4731 33.1999C43.2731 33.8999 43.4731 34.5999 43.8731 35.0999L43.6731 35.6999L49.9731 42.4999H52.4731L58.1731 36.9999L59.2731 35.2999C59.8731 34.7999 60.1731 33.9999 59.8731 33.1999Z" fill="black"/>
<path d="M64.9731 32.8C61.1731 32.8 56.4731 36.6 53.2731 39.8C52.6731 40.4 52.2731 41.3001 52.2731 42.2001C52.2731 43.1 52.5731 44 53.2731 44.6C53.5731 44.9 53.9731 45.3001 54.4731 45.7001H48.9731C49.3731 45.3001 49.7731 45 50.0731 44.6C51.3731 43.3 51.3731 41.1 50.0731 39.8C47.9731 37.7 42.6731 32.8 38.2731 32.8C32.6731 32.8 27.9731 37 27.9731 42.3C27.9731 47.5 32.6731 51.7001 38.3731 51.7001C39.7731 51.7001 41.1731 51.2001 42.6731 50.4001C44.6731 53.9001 47.6731 57.2001 48.9731 58.5C49.6731 59.2001 50.6731 59.6 51.6731 59.6C51.6731 59.6 51.6731 59.6 51.7731 59.6C52.7731 59.6 53.7731 59.2001 54.4731 58.4001C56.4731 56.3001 58.9731 53.4 60.7731 50.3C62.2731 51.1 63.7731 51.6 65.1731 51.6C70.8731 51.6 75.5731 47.4001 75.5731 42.2001C75.5731 37.0001 70.6731 32.8 64.9731 32.8ZM30.1731 42.3C30.1731 38.3 33.8731 35 38.3731 35C41.2731 35 45.5731 38.3001 48.5731 41.4001C48.9731 41.8001 48.9731 42.6 48.5731 43.1C44.3731 47.2 40.6731 49.5 38.3731 49.5C33.8731 49.5 30.1731 46.2 30.1731 42.3ZM52.7731 56.9001C52.4731 57.2001 52.0731 57.4001 51.6731 57.4001C51.2731 57.4001 50.7731 57.2001 50.4731 56.9001C50.0731 56.5001 49.4731 55.8 48.6731 55H54.4731C53.8731 55.7001 53.2731 56.4001 52.7731 56.9001ZM57.2731 51.6H46.0731C45.5731 50.8 45.0731 50.1 44.5731 49.3C44.6731 49.2 44.7731 49.2 44.7731 49.1H58.5731C58.6731 49.1 58.6731 49.2001 58.7731 49.2001C58.2731 50 57.7731 50.8 57.2731 51.6ZM64.9731 49.4001C62.0731 49.4001 57.7731 46.1 54.7731 43C54.5731 42.8 54.4731 42.5001 54.4731 42.2001C54.4731 41.9001 54.5731 41.6001 54.7731 41.4001C58.9731 37.2001 62.5731 35 64.9731 35C69.4731 35 73.1731 38.2001 73.1731 42.2001C73.1731 46.2001 69.4731 49.4001 64.9731 49.4001Z" fill="black"/>
<path d="M53.6731 30.7999C53.9731 30.7999 54.2731 30.4999 54.2731 30.1999C54.2731 29.8999 53.9731 29.5999 53.6731 29.5999C53.3731 29.5999 53.0731 29.8999 53.0731 30.1999C53.0731 30.5999 53.3731 30.7999 53.6731 30.7999Z" fill="white"/>
<path d="M49.5731 30.7999C49.8731 30.7999 50.1731 30.4999 50.1731 30.1999C50.1731 29.8999 49.8731 29.5999 49.5731 29.5999C49.2731 29.5999 48.9731 29.8999 48.9731 30.1999C48.9731 30.5999 49.2731 30.7999 49.5731 30.7999Z" fill="white"/>
<path d="M51.8732 35.3C50.5732 35.3 49.2732 34.7001 48.0732 33.4001C47.9732 33.3001 47.9732 33.1 48.0732 33C48.1732 32.9 48.3732 32.9 48.4732 33C49.5732 34.2 50.6732 34.7 51.8732 34.7C53.5732 34.7 54.8732 33.4001 54.8732 33.4001C54.9732 33.3001 55.1732 33.3001 55.2732 33.4001C55.3732 33.5001 55.3732 33.7 55.2732 33.8C55.1732 33.9 53.8732 35.3 51.8732 35.3Z" fill="white"/>
<defs>
<linearGradient id="paint0_linear" x1="13.4462" y1="42.0999" x2="89.8933" y2="42.0999" gradientUnits="userSpaceOnUse">
<stop offset="1.33195e-07" stop-color="#FA8231"/>
<stop offset="1" stop-color="#FBCA32"/>
</linearGradient>
</defs>
</svg>
