<svg width="104" height="116" viewBox="0 0 104 116" fill="none" xmlns="http://www.w3.org/2000/svg">
<path d="M83.2731 16.2L82.8731 16L58.3731 1.8C54.1731 -0.6 49.1731 -0.6 45.0731 1.8L20.5731 15.9L20.1731 16.1C16.0731 18.5 13.4731 22.9 13.4731 27.7V46.2V55V56.4C13.4731 61.2 16.0731 65.6 20.1731 68L25.6731 71.2L44.9731 82.4C49.0731 84.8 54.1731 84.8 58.2731 82.4L77.7731 71.2L83.1731 68.1C87.2731 65.7 89.8731 61.3 89.8731 56.5V39.3V31V27.8C89.9731 22.9 87.3731 18.6 83.2731 16.2Z" fill="url(#paint0_linear)"/>
<path d="M49.4732 28.4999L47.3732 28.1999C47.3732 28.1999 47.4732 27.6999 47.0732 27.2999C46.7732 26.9999 45.9732 26.5999 43.7732 26.9999C43.1732 27.0999 42.6732 26.6999 42.4732 26.0999C42.3732 25.4999 42.7732 24.9999 43.3732 24.7999C45.6732 24.3999 47.4732 24.5999 48.5732 25.6999C49.6732 26.8999 49.4732 28.2999 49.4732 28.4999Z" fill="black"/>
<path d="M53.7732 28.4999C53.7732 28.2999 53.5732 26.8999 54.7732 25.7999C55.7732 24.7999 57.5732 24.4999 59.9732 24.8999C60.5732 24.9999 60.9732 25.5999 60.8732 26.1999C60.7732 26.7999 60.1732 27.1999 59.5732 27.0999C57.3732 26.6999 56.5732 27.0999 56.2732 27.3999C55.8732 27.7999 55.9732 28.2999 55.9732 28.2999L53.7732 28.4999Z" fill="black"/>
<path d="M59.8731 33.1999C58.7731 29.6999 55.5731 27.0999 51.6731 27.0999C47.7731 27.0999 44.5731 29.6999 43.4731 33.1999C43.2731 33.8999 43.4731 34.5999 43.8731 35.0999L43.6731 35.6999L49.9731 42.4999H52.4731L58.1731 36.9999L59.2731 35.2999C59.8731 34.7999 60.1731 33.9999 59.8731 33.1999Z" fill="black"/>
<path d="M64.9731 32.8C61.1731 32.8 56.4731 36.6 53.2731 39.8C52.6731 40.4 52.2731 41.3001 52.2731 42.2001C52.2731 43.1 52.5731 44 53.2731 44.6C53.5731 44.9 53.9731 45.3001 54.4731 45.7001H48.9731C49.3731 45.3001 49.7731 45 50.0731 44.6C51.3731 43.3 51.3731 41.1 50.0731 39.8C47.9731 37.7 42.6731 32.8 38.2731 32.8C32.6731 32.8 27.9731 37 27.9731 42.3C27.9731 47.5 32.6731 51.7001 38.3731 51.7001C39.7731 51.7001 41.1731 51.2001 42.6731 50.4001C44.6731 53.9001 47.6731 57.2001 48.9731 58.5C49.6731 59.2001 50.6731 59.6 51.6731 59.6C51.6731 59.6 51.6731 59.6 51.7731 59.6C52.7731 59.6 53.7731 59.2001 54.4731 58.4001C56.4731 56.3001 58.9731 53.4 60.7731 50.3C62.2731 51.1 63.7731 51.6 65.1731 51.6C70.8731 51.6 75.5731 47.4001 75.5731 42.2001C75.5731 37.0001 70.6731 32.8 64.9731 32.8ZM30.1731 42.3C30.1731 38.3 33.8731 35 38.3731 35C41.2731 35 45.5731 38.3001 48.5731 41.4001C48.9731 41.8001 48.9731 42.6 48.5731 43.1C44.3731 47.2 40.6731 49.5 38.3731 49.5C33.8731 49.5 30.1731 46.2 30.1731 42.3ZM52.7731 56.9001C52.4731 57.2001 52.0731 57.4001 51.6731 57.4001C51.2731 57.4001 50.7731 57.2001 50.4731 56.9001C50.0731 56.5001 49.4731 55.8 48.6731 55H54.4731C53.8731 55.7001 53.2731 56.4001 52.7731 56.9001ZM57.2731 51.6H46.0731C45.5731 50.8 45.0731 50.1 44.5731 49.3C44.6731 49.2 44.7731 49.2 44.7731 49.1H58.5731C58.6731 49.1 58.6731 49.2001 58.7731 49.2001C58.2731 50 57.7731 50.8 57.2731 51.6ZM64.9731 49.4001C62.0731 49.4001 57.7731 46.1 54.7731 43C54.5731 42.8 54.4731 42.5001 54.4731 42.2001C54.4731 41.9001 54.5731 41.6001 54.7731 41.4001C58.9731 37.2001 62.5731 35 64.9731 35C69.4731 35 73.1731 38.2001 73.1731 42.2001C73.1731 46.2001 69.4731 49.4001 64.9731 49.4001Z" fill="black"/>
<path d="M53.6731 30.7999C53.9731 30.7999 54.2731 30.4999 54.2731 30.1999C54.2731 29.8999 53.9731 29.5999 53.6731 29.5999C53.3731 29.5999 53.0731 29.8999 53.0731 30.1999C53.0731 30.5999 53.3731 30.7999 53.6731 30.7999Z" fill="white"/>
<path d="M49.5731 30.7999C49.8731 30.7999 50.1731 30.4999 50.1731 30.1999C50.1731 29.8999 49.8731 29.5999 49.5731 29.5999C49.2731 29.5999 48.9731 29.8999 48.9731 30.1999C48.9731 30.5999 49.2731 30.7999 49.5731 30.7999Z" fill="white"/>
<path d="M51.8732 35.3C50.5732 35.3 49.2732 34.7001 48.0732 33.4001C47.9732 33.3001 47.9732 33.1 48.0732 33C48.1732 32.9 48.3732 32.9 48.4732 33C49.5732 34.2 50.6732 34.7 51.8732 34.7C53.5732 34.7 54.8732 33.4001 54.8732 33.4001C54.9732 33.3001 55.1732 33.3001 55.2732 33.4001C55.3732 33.5001 55.3732 33.7 55.2732 33.8C55.1732 33.9 53.8732 35.3 51.8732 35.3Z" fill="white"/>
<path d="M7.19124 109.257C6.03132 109.257 4.99191 109.069 4.07302 108.692C3.15413 108.316 2.416 107.759 1.85864 107.02C1.31634 106.282 1.03013 105.393 1 104.354H5.11243C5.17268 104.942 5.37604 105.393 5.72251 105.71C6.06898 106.011 6.52089 106.162 7.07825 106.162C7.65068 106.162 8.10259 106.034 8.434 105.778C8.7654 105.506 8.93111 105.137 8.93111 104.67C8.93111 104.279 8.79553 103.955 8.52438 103.699C8.2683 103.443 7.94442 103.232 7.55276 103.066C7.17617 102.9 6.63387 102.712 5.92587 102.501C4.90153 102.185 4.06549 101.869 3.41775 101.552C2.77 101.236 2.21264 100.769 1.74566 100.151C1.27868 99.5337 1.04519 98.7277 1.04519 97.7335C1.04519 96.2573 1.57996 95.1049 2.64949 94.2764C3.71902 93.4328 5.11243 93.011 6.8297 93.011C8.57711 93.011 9.98558 93.4328 11.0551 94.2764C12.1246 95.1049 12.6971 96.2648 12.7724 97.7561H8.59217C8.56204 97.244 8.37374 96.8448 8.02728 96.5586C7.68081 96.2573 7.23643 96.1066 6.69413 96.1066C6.22715 96.1066 5.85055 96.2347 5.56434 96.4908C5.27813 96.7318 5.13503 97.0858 5.13503 97.5528C5.13503 98.0649 5.37604 98.4641 5.85809 98.7503C6.34013 99.0366 7.09332 99.3454 8.11766 99.6768C9.142 100.023 9.97051 100.355 10.6032 100.671C11.2509 100.987 11.8083 101.447 12.2753 102.049C12.7423 102.652 12.9757 103.428 12.9757 104.377C12.9757 105.281 12.7423 106.101 12.2753 106.84C11.8234 107.578 11.1606 108.165 10.2868 108.602C9.41315 109.039 8.38128 109.257 7.19124 109.257Z" fill="black"/>
<path d="M23.0587 109.099L19.2175 103.812V109.099H15.3536V92.3783H19.2175V101.62L23.0361 96.4908H27.8039L22.5616 102.818L27.849 109.099H23.0587Z" fill="black"/>
<path d="M31.2647 95.1802C30.5868 95.1802 30.0295 94.9844 29.5926 94.5927C29.1708 94.186 28.9599 93.6889 28.9599 93.1014C28.9599 92.4989 29.1708 92.0017 29.5926 91.6101C30.0295 91.2034 30.5868 91 31.2647 91C31.9275 91 32.4698 91.2034 32.8916 91.6101C33.3284 92.0017 33.5469 92.4989 33.5469 93.1014C33.5469 93.6889 33.3284 94.186 32.8916 94.5927C32.4698 94.9844 31.9275 95.1802 31.2647 95.1802ZM33.1853 96.4908V109.099H29.3215V96.4908H33.1853Z" fill="black"/>
<path d="M39.8493 92.3783V109.099H35.9855V92.3783H39.8493Z" fill="black"/>
<path d="M46.5133 92.3783V109.099H42.6494V92.3783H46.5133Z" fill="black"/>
<path d="M52.9287 105.913H58.3969V109.099H48.6129V106.026L53.8552 99.6768H48.6581V96.4908H58.2839V99.5638L52.9287 105.913Z" fill="black"/>
<path d="M59.7548 102.772C59.7548 101.477 59.9958 100.34 60.4778 99.3604C60.9749 98.3813 61.6453 97.6281 62.4888 97.1009C63.3324 96.5736 64.2739 96.31 65.3133 96.31C66.2021 96.31 66.9779 96.4908 67.6407 96.8523C68.3186 97.2138 68.8383 97.6883 69.1998 98.2758V96.4908H73.0637V109.099H69.1998V107.314C68.8232 107.902 68.296 108.376 67.6181 108.738C66.9553 109.099 66.1795 109.28 65.2907 109.28C64.2664 109.28 63.3324 109.016 62.4888 108.489C61.6453 107.947 60.9749 107.186 60.4778 106.207C59.9958 105.213 59.7548 104.068 59.7548 102.772ZM69.1998 102.795C69.1998 101.831 68.9286 101.07 68.3863 100.513C67.8591 99.9554 67.2114 99.6768 66.4431 99.6768C65.6748 99.6768 65.0196 99.9554 64.4773 100.513C63.95 101.055 63.6864 101.808 63.6864 102.772C63.6864 103.736 63.95 104.505 64.4773 105.077C65.0196 105.635 65.6748 105.913 66.4431 105.913C67.2114 105.913 67.8591 105.635 68.3863 105.077C68.9286 104.52 69.1998 103.759 69.1998 102.795Z" fill="black"/>
<path d="M80.6493 96.31C81.5381 96.31 82.3138 96.4908 82.9767 96.8523C83.6545 97.2138 84.1742 97.6883 84.5358 98.2758V96.4908H88.3996V109.077C88.3996 110.237 88.1661 111.283 87.6992 112.217C87.2472 113.166 86.5468 113.92 85.5978 114.477C84.6638 115.034 83.4963 115.313 82.0954 115.313C80.2275 115.313 78.7136 114.869 77.5537 113.98C76.3938 113.106 75.7309 111.916 75.5652 110.41H79.3839C79.5044 110.892 79.7907 111.268 80.2426 111.54C80.6945 111.826 81.2518 111.969 81.9146 111.969C82.713 111.969 83.3457 111.735 83.8127 111.268C84.2947 110.816 84.5358 110.086 84.5358 109.077V107.292C84.1592 107.879 83.6395 108.361 82.9767 108.738C82.3138 109.099 81.5381 109.28 80.6493 109.28C79.6099 109.28 78.6684 109.016 77.8248 108.489C76.9812 107.947 76.3109 107.186 75.8138 106.207C75.3318 105.213 75.0907 104.068 75.0907 102.772C75.0907 101.477 75.3318 100.34 75.8138 99.3604C76.3109 98.3813 76.9812 97.6281 77.8248 97.1009C78.6684 96.5736 79.6099 96.31 80.6493 96.31ZM84.5358 102.795C84.5358 101.831 84.2646 101.07 83.7223 100.513C83.1951 99.9554 82.5473 99.6768 81.7791 99.6768C81.0108 99.6768 80.3555 99.9554 79.8132 100.513C79.286 101.055 79.0224 101.808 79.0224 102.772C79.0224 103.736 79.286 104.505 79.8132 105.077C80.3555 105.635 81.0108 105.913 81.7791 105.913C82.5473 105.913 83.1951 105.635 83.7223 105.077C84.2646 104.52 84.5358 103.759 84.5358 102.795Z" fill="black"/>
<path d="M103.08 102.592C103.08 102.953 103.058 103.33 103.013 103.721H94.268C94.3283 104.505 94.5768 105.107 95.0137 105.529C95.4656 105.936 96.0154 106.139 96.6632 106.139C97.6272 106.139 98.2976 105.732 98.6742 104.919H102.787C102.576 105.747 102.192 106.493 101.634 107.156C101.092 107.819 100.407 108.338 99.578 108.715C98.7495 109.092 97.8231 109.28 96.7987 109.28C95.5635 109.28 94.4638 109.016 93.4998 108.489C92.5357 107.962 91.7825 107.209 91.2402 106.23C90.6979 105.25 90.4267 104.106 90.4267 102.795C90.4267 101.484 90.6904 100.34 91.2176 99.3604C91.7599 98.3813 92.5131 97.6281 93.4772 97.1009C94.4412 96.5736 95.5484 96.31 96.7987 96.31C98.0189 96.31 99.1035 96.5661 100.053 97.0783C101.002 97.5904 101.74 98.321 102.267 99.27C102.809 100.219 103.08 101.326 103.08 102.592ZM99.1261 101.575C99.1261 100.912 98.9001 100.385 98.4482 99.9931C97.9963 99.6014 97.4314 99.4056 96.7535 99.4056C96.1058 99.4056 95.556 99.5939 95.104 99.9705C94.6672 100.347 94.3961 100.882 94.2906 101.575H99.1261Z" fill="black"/>
<defs>
<linearGradient id="paint0_linear" x1="13.4462" y1="42.0999" x2="89.8933" y2="42.0999" gradientUnits="userSpaceOnUse">
<stop offset="1.33195e-07" stop-color="#FA8231"/>
<stop offset="1" stop-color="#FBCA32"/>
</linearGradient>
</defs>
</svg>
